# xmcd
#
# Track frame offsets: 
#        150
#        14092
#        41043
#        59351
#        87408
#        105280
#
# Disc length: 1647 seconds
#
# Revision: 0
# Processed by: cddbd v1.5.2PL0 Copyright (c) Steve Scherf et al.
# Submitted via: ExactAudioCopy v1.2
#
DISCID=48066d06
DTITLE=Willie Jackson and The Tybee Blues Band - Chosen By The Blues
DYEAR=2018
DGENRE=Blues
TTITLE0=Just An Old Dog
TTITLE1=Big Boned Woman
TTITLE2=I'll Throw You Back
TTITLE3=Sleepin' On The Job
TTITLE4=Why You Still Mad?
TTITLE5=Diggin' My Shovel
EXTD=
EXTT0=
EXTT1=
EXTT2=
EXTT3=
EXTT4=
EXTT5=
PLAYORDER=
